<?xml version="1.0" encoding="utf-8"?>
<!-- Generator: Adobe Illustrator 28.1.0, SVG Export Plug-In . SVG Version: 6.00 Build 0)  -->
<svg version="1.1" id="Layer_1" xmlns="http://www.w3.org/2000/svg" xmlns:xlink="http://www.w3.org/1999/xlink" x="0px" y="0px"
	 viewBox="0 0 52.6 24.3" style="enable-background:new 0 0 52.6 24.3;" xml:space="preserve">
<style type="text/css">
	.st0{fill:#EC292F;}
	.st1{font-family:'Pistilli';}
	.st2{font-size:10.6703px;}
</style>
<g>
	<path class="st0" d="M26.8,22.3c-12.1,0-21.9-4.6-21.9-10.2S14.8,1.8,26.8,1.8c12.1,0,21.9,4.6,21.9,10.2S38.9,22.3,26.8,22.3z
		 M26.8,2.5c-11.7,0-21.3,4.3-21.3,9.6c0,5.3,9.5,9.6,21.3,9.6c11.7,0,21.3-4.3,21.3-9.6C48.1,6.8,38.6,2.5,26.8,2.5z"/>
</g>
<text transform="matrix(1 0 0 1 11.4978 15.4979)" class="st0 st1 st2">W</text>
<text transform="matrix(1 0 0 1 22.075 15.4979)" class="st0 st1 st2">inE</text>
</svg>
