<?xml version="1.0" encoding="utf-8"?>
<!-- Generator: Adobe Illustrator 28.1.0, SVG Export Plug-In . SVG Version: 6.00 Build 0)  -->
<svg version="1.1" id="Layer_1" xmlns="http://www.w3.org/2000/svg" xmlns:xlink="http://www.w3.org/1999/xlink" x="0px" y="0px"
	 viewBox="0 0 1920 669.3" style="enable-background:new 0 0 1920 669.3;" xml:space="preserve">
<style type="text/css">
	.st0{fill:#EC292F;}
</style>
<g>
	<g>
		<path class="st0" d="M150.4,57.8v2.2c-1.9,0.1-3.3,0.5-4.1,1.1c-0.8,0.6-1.2,1.5-1.2,2.8c0,1.3,0.4,3,1.1,5.3l16.9,51.6l-2.7,2.7
			l15.3-48.7l1.6,2.6l-18,58.2c-0.1,0-0.3,0-0.4,0c-0.1,0-0.3,0-0.4,0c-0.1,0-0.3,0-0.4,0c-0.1,0-0.3,0-0.4,0l-23.1-68.6
			c-0.9-2.8-2.1-4.7-3.6-5.6c-1.5-0.9-2.8-1.3-3.9-1.4v-2.2c1.5,0.1,3.3,0.1,5.4,0.2c2.1,0.1,4.2,0.1,6.3,0.1c2.4,0,4.6,0,6.7-0.1
			C147.4,57.9,149.1,57.8,150.4,57.8z M226.6,57.8v2.2c-1.4,0.3-2.9,1.1-4.6,2.5c-1.7,1.3-3,3.7-4,7l-20.6,66.1c-0.1,0-0.3,0-0.4,0
			c-0.1,0-0.3,0-0.4,0c-0.1,0-0.3,0-0.4,0c-0.1,0-0.3,0-0.4,0l-23.1-68.6c-0.9-2.8-2-4.7-3.2-5.6c-1.2-0.9-2.3-1.3-3.3-1.4v-2.2
			c1.3,0.1,2.9,0.1,4.9,0.2c2,0.1,3.9,0.1,5.7,0.1c2.8,0,5.5,0,8-0.1c2.5-0.1,4.5-0.1,6-0.2v2.2c-2.2,0.1-3.9,0.3-5.2,0.7
			c-1.3,0.4-2,1.2-2.2,2.4c-0.2,1.2,0.2,3.3,1,6.1l16.2,50.3l-1.5,1.3l14.4-45.2c1.3-4,1.9-7.1,1.8-9.3c-0.1-2.2-0.9-3.8-2.5-4.7
			c-1.5-0.9-3.8-1.4-6.9-1.5v-2.2c2.1,0.1,4.3,0.1,6.4,0.2c2.2,0.1,4.2,0.1,6.1,0.1c1.9,0,3.5,0,4.7-0.1
			C224.4,57.9,225.5,57.8,226.6,57.8z"/>
		<path class="st0" d="M245,77.6v47.2c0,3.1,0.6,5.1,1.9,6.2c1.3,1.1,3.4,1.6,6.4,1.6v2.3c-1.2-0.1-3.1-0.2-5.6-0.3s-5-0.2-7.6-0.2
			c-2.5,0-5,0.1-7.5,0.2c-2.5,0.1-4.4,0.2-5.7,0.3v-2.3c3,0,5.1-0.5,6.4-1.6c1.3-1.1,1.9-3.2,1.9-6.2V90.7c0-3.3-0.6-5.7-1.7-7.3
			c-1.2-1.6-3.3-2.3-6.5-2.3v-2.3c2.3,0.2,4.6,0.3,6.8,0.3c2.1,0,4.1-0.1,6.1-0.4C241.7,78.5,243.4,78.1,245,77.6z M239.4,51.5
			c1.9,0,3.5,0.7,4.9,2.1c1.4,1.4,2.1,3,2.1,4.9c0,1.9-0.7,3.5-2.1,4.9c-1.4,1.4-3,2.1-4.9,2.1c-1.9,0-3.5-0.7-4.9-2.1
			c-1.4-1.4-2.1-3-2.1-4.9c0-1.9,0.7-3.5,2.1-4.9C235.8,52.2,237.5,51.5,239.4,51.5z"/>
		<path class="st0" d="M295.5,77.3c2.8,0,5.1,0.4,6.9,1.1c1.9,0.7,3.4,1.7,4.6,3.1c1.4,1.5,2.4,3.3,2.9,5.5c0.6,2.2,0.9,5.1,0.9,8.8
			v29.1c0,3.1,0.6,5.1,1.9,6.2c1.3,1.1,3.4,1.6,6.4,1.6v2.3c-1.2-0.1-3.1-0.2-5.7-0.3c-2.5-0.1-5-0.2-7.4-0.2s-4.7,0.1-7,0.2
			c-2.3,0.1-4,0.2-5.2,0.3v-2.3c2.6,0,4.5-0.5,5.6-1.6c1.1-1.1,1.6-3.2,1.6-6.2V93.3c0-2.3-0.2-4.3-0.5-6.2
			c-0.4-1.9-1.2-3.4-2.5-4.6c-1.3-1.2-3.2-1.7-5.8-1.7c-3.1,0-5.7,0.9-8,2.6c-2.3,1.7-4.1,4.1-5.3,7.1c-1.3,3-1.9,6.4-1.9,10.1v24.2
			c0,3.1,0.5,5.1,1.6,6.2c1.1,1.1,2.9,1.6,5.6,1.6v2.3c-1.2-0.1-2.9-0.2-5.2-0.3c-2.3-0.1-4.6-0.2-7-0.2s-4.9,0.1-7.4,0.2
			c-2.5,0.1-4.4,0.2-5.7,0.3v-2.3c3,0,5.1-0.5,6.4-1.6c1.3-1.1,1.9-3.2,1.9-6.2V90.7c0-3.3-0.6-5.7-1.7-7.3
			c-1.2-1.6-3.3-2.3-6.5-2.3v-2.3c2.3,0.2,4.6,0.3,6.8,0.3c2.1,0,4.1-0.1,6.1-0.4c1.9-0.3,3.7-0.6,5.3-1.1v12.9
			c1.9-4.9,4.5-8.4,7.9-10.3C288.3,78.2,291.8,77.3,295.5,77.3z"/>
		<path class="st0" d="M350.5,77.3c6.4,0,11.4,1.9,15,5.8c3.6,3.9,5.4,9.9,5.4,18.2h-38.5l-0.1-2.1h28.1c0.1-3.6-0.1-6.9-0.9-9.9
			c-0.7-3-1.9-5.4-3.4-7.3c-1.6-1.8-3.6-2.7-6.1-2.7c-3.3,0-6.3,1.7-8.9,5c-2.6,3.3-4.1,8.7-4.6,15.9l0.3,0.4
			c-0.1,1.1-0.3,2.3-0.3,3.6c-0.1,1.3-0.1,2.6-0.1,3.9c0,4.9,0.8,9.2,2.4,12.8c1.6,3.6,3.7,6.3,6.3,8.1c2.6,1.9,5.2,2.8,8,2.8
			c2.2,0,4.3-0.3,6.2-1c2-0.7,3.8-1.8,5.5-3.4c1.7-1.6,3.1-3.7,4.4-6.4l2.2,0.9c-0.8,2.4-2.1,4.7-3.9,7c-1.8,2.3-4.1,4.1-6.9,5.5
			c-2.8,1.4-6,2.1-9.6,2.1c-5.2,0-9.7-1.2-13.5-3.6c-3.7-2.4-6.6-5.7-8.6-10c-2-4.3-3-9.1-3-14.7c0-6.4,1-11.9,3.1-16.5
			c2-4.6,4.9-8.2,8.6-10.7C341.2,78.5,345.5,77.3,350.5,77.3z"/>
		<path class="st0" d="M389.7,122.5c1.6,0,2.9,0.3,3.9,1c1,0.7,1.9,1.5,2.5,2.5c0.8,1.2,1.3,2.4,1.5,3.8c0.2,1.4,0.3,2.5,0.3,3.4
			c0,3.6-0.9,6.8-2.7,9.7c-1.8,2.9-4.7,5.3-8.5,7.1l-1-2c2.3-0.9,4.2-2.4,5.8-4.5c1.6-2,2.5-4.1,2.5-6.2c0-0.9-0.1-1.6-0.3-2.3
			c-1.2,0.9-2.5,1.4-4,1.4c-1.9,0-3.5-0.6-4.9-1.9c-1.4-1.2-2.1-2.9-2.1-5.1c0-2,0.7-3.7,2.1-5C386.2,123.2,387.8,122.5,389.7,122.5
			z"/>
		<path class="st0" d="M433.2,47.1l1.5,1.4c-6.1,7.1-10.4,14.9-12.8,23.4c-2.4,8.5-3.6,18.2-3.6,29.1s1.2,20.6,3.6,29.1
			c2.4,8.5,6.7,16.3,12.8,23.4l-1.5,1.4c-7.3-6.7-13.2-14.5-17.5-23.5c-4.3-9-6.5-19.1-6.5-30.4c0-11.3,2.2-21.4,6.5-30.4
			C420,61.6,425.9,53.8,433.2,47.1z"/>
		<path class="st0" d="M444.4,98.6c0-6.2-0.1-11.6-0.4-16.5h8.4l0.3,10.4h0.4c2.4-7.1,8.2-11.6,14.6-11.6c1.1,0,1.9,0.1,2.7,0.3v9
			c-1-0.2-2-0.3-3.3-0.3c-6.8,0-11.6,5.1-12.9,12.3c-0.2,1.3-0.4,2.8-0.4,4.5v28.1h-9.5V98.6z"/>
		<path class="st0" d="M484.3,110.3c0.2,13,8.5,18.3,18.1,18.3c6.9,0,11-1.2,14.6-2.7l1.6,6.9c-3.4,1.5-9.2,3.3-17.6,3.3
			c-16.2,0-25.9-10.7-25.9-26.6c0-15.9,9.4-28.5,24.7-28.5c17.2,0,21.8,15.2,21.8,24.9c0,2-0.2,3.5-0.3,4.5H484.3z M512.5,103.4
			c0.1-6.1-2.5-15.6-13.3-15.6c-9.7,0-14,8.9-14.7,15.6H512.5z"/>
		<path class="st0" d="M579.2,57.5v63.8c0,4.7,0.1,10,0.4,13.6H571l-0.4-9.2h-0.2c-2.9,5.9-9.4,10.4-18,10.4
			c-12.8,0-22.6-10.8-22.6-26.8C529.7,91.8,540.6,81,553.5,81c8.1,0,13.5,3.8,15.9,8.1h0.2V57.5H579.2z M569.6,103.7
			c0-1.2-0.1-2.8-0.4-4c-1.4-6.1-6.7-11.1-13.8-11.1c-9.9,0-15.8,8.7-15.8,20.4c0,10.7,5.2,19.5,15.6,19.5c6.4,0,12.3-4.3,14.1-11.4
			c0.3-1.3,0.4-2.6,0.4-4.1V103.7z"/>
		<path class="st0" d="M591,47.1c7.3,6.7,13.2,14.5,17.5,23.5c4.3,9,6.5,19.1,6.5,30.4c0,11.3-2.2,21.4-6.5,30.4
			c-4.3,9-10.2,16.8-17.5,23.5l-1.5-1.4c6.1-7.1,10.4-14.9,12.8-23.4c2.4-8.5,3.6-18.2,3.6-29.1s-1.2-20.6-3.6-29.1
			c-2.4-8.5-6.7-16.3-12.8-23.4L591,47.1z"/>
		<path class="st0" d="M242.5,172.8v2.2c-2.5,0.1-4.3,0.4-5.6,1.1c-1.3,0.7-2.1,1.7-2.6,3.2c-0.4,1.5-0.7,3.5-0.7,6.2v32.8
			c0,5.1-0.3,9.5-1,13.3c-0.7,3.8-1.8,7.1-3.5,9.8c-1.8,3.1-4.5,5.5-8,7.4c-3.5,1.9-7.5,2.8-12,2.8c-3.5,0-6.8-0.4-10-1.3
			s-5.9-2.4-8.3-4.6c-2.1-2-3.8-4.2-5-6.4c-1.2-2.3-2-5-2.5-8.3c-0.4-3.3-0.7-7.4-0.7-12.3v-34.2c0-2.7-0.2-4.7-0.7-5.9
			c-0.4-1.3-1.3-2.1-2.6-2.6c-1.3-0.5-3.1-0.7-5.6-0.8v-2.2c1.5,0.1,3.5,0.1,6,0.2c2.5,0.1,5.1,0.1,8,0.1c2.5,0,5.1,0,7.6-0.1
			c2.5-0.1,4.6-0.1,6.3-0.2v2.2c-2.5,0.1-4.3,0.3-5.6,0.8c-1.3,0.5-2.1,1.3-2.6,2.6c-0.4,1.3-0.7,3.3-0.7,5.9v36.1
			c0,3.7,0.2,7.2,0.5,10.5c0.4,3.3,1.1,6.2,2.2,8.7c1.1,2.5,2.9,4.5,5.2,5.9c2.3,1.4,5.4,2.1,9.3,2.1c5.5,0,9.8-1.2,12.8-3.7
			c3-2.4,5.1-5.8,6.3-10.1c1.2-4.3,1.8-9.1,1.8-14.5v-34c0-2.7-0.3-4.8-0.9-6.2c-0.6-1.5-1.7-2.5-3.1-3.2c-1.5-0.7-3.4-1-5.9-1.1
			v-2.2c1.3,0.1,3,0.1,5.2,0.2c2.1,0.1,4.1,0.1,5.9,0.1c1.9,0,3.8,0,5.6-0.1C239.9,172.9,241.4,172.8,242.5,172.8z"/>
		<path class="st0" d="M283.6,192.3c2.8,0,5.1,0.4,6.9,1.1s3.4,1.7,4.6,3.1c1.4,1.5,2.4,3.3,2.9,5.5c0.6,2.2,0.9,5.1,0.9,8.8v29.1
			c0,3.1,0.6,5.1,1.9,6.2c1.3,1.1,3.4,1.6,6.4,1.6v2.3c-1.2-0.1-3.1-0.2-5.7-0.3c-2.5-0.1-5-0.2-7.4-0.2s-4.7,0.1-7,0.2
			c-2.3,0.1-4,0.2-5.2,0.3v-2.3c2.6,0,4.5-0.5,5.6-1.6c1.1-1.1,1.6-3.2,1.6-6.2v-31.5c0-2.3-0.2-4.3-0.5-6.2
			c-0.4-1.9-1.2-3.4-2.5-4.6c-1.3-1.2-3.2-1.7-5.8-1.7c-3.1,0-5.7,0.9-8,2.6c-2.3,1.7-4.1,4.1-5.3,7.1c-1.3,3-1.9,6.4-1.9,10.1v24.2
			c0,3.1,0.5,5.1,1.6,6.2c1.1,1.1,2.9,1.6,5.6,1.6v2.3c-1.2-0.1-2.9-0.2-5.2-0.3c-2.3-0.1-4.6-0.2-7-0.2s-4.9,0.1-7.4,0.2
			c-2.5,0.1-4.4,0.2-5.7,0.3v-2.3c3,0,5.1-0.5,6.4-1.6c1.3-1.1,1.9-3.2,1.9-6.2v-34.1c0-3.3-0.6-5.7-1.7-7.2
			c-1.2-1.6-3.3-2.3-6.5-2.3v-2.3c2.3,0.2,4.6,0.3,6.8,0.3c2.1,0,4.1-0.1,6.1-0.4c1.9-0.3,3.7-0.6,5.3-1.1v12.9
			c1.9-4.9,4.5-8.4,7.9-10.3C276.4,193.2,279.9,192.3,283.6,192.3z"/>
		<path class="st0" d="M330.2,192.6v47.2c0,3.1,0.6,5.1,1.9,6.2c1.3,1.1,3.4,1.6,6.4,1.6v2.3c-1.2-0.1-3.1-0.2-5.6-0.3
			s-5-0.2-7.6-0.2c-2.5,0-5,0.1-7.5,0.2c-2.5,0.1-4.4,0.2-5.7,0.3v-2.3c3,0,5.1-0.5,6.4-1.6c1.3-1.1,1.9-3.2,1.9-6.2v-34.1
			c0-3.3-0.6-5.7-1.7-7.2c-1.2-1.6-3.3-2.3-6.5-2.3v-2.3c2.3,0.2,4.6,0.3,6.8,0.3c2.1,0,4.1-0.1,6.1-0.4
			C326.8,193.5,328.6,193.1,330.2,192.6z M324.5,166.5c1.9,0,3.5,0.7,4.9,2.1c1.4,1.4,2.1,3,2.1,4.9c0,1.9-0.7,3.5-2.1,4.9
			c-1.4,1.4-3,2.1-4.9,2.1c-1.9,0-3.5-0.7-4.9-2.1c-1.4-1.4-2.1-3-2.1-4.9c0-1.9,0.7-3.5,2.1-4.9C321,167.2,322.6,166.5,324.5,166.5
			z"/>
		<path class="st0" d="M369.3,192.3c4.5,0,8.1,1,10.9,2.9c2.8,1.9,4.9,5.1,6.4,9.5l-2.2-1.2c-1.4-3-3.3-5.2-5.8-6.6
			c-2.5-1.4-5.3-2.1-8.5-2.1c-4.3,0-7.6,2.2-10,6.7c-2.4,4.4-3.6,11.3-3.6,20.5c0,5.8,0.6,10.7,1.7,14.6c1.2,3.9,2.9,6.9,5.1,8.8
			c2.3,1.9,5,2.9,8.2,2.9c3.1,0,5.8-1.5,8.4-4.5c2.5-3,4-7.4,4.5-13.2l1.3,1.5c-0.5,6.2-2.4,11-5.6,14.3c-3.2,3.4-7.1,5.1-11.7,5.1
			c-4.1,0-7.9-1.1-11.3-3.2c-3.4-2.1-6.1-5.4-8.1-9.8c-2-4.4-3-9.9-3-16.5c0-6.6,1-12.1,3.1-16.5c2.1-4.4,4.9-7.7,8.4-9.9
			C361,193.4,365,192.3,369.3,192.3z M392.4,192l1.9,0.8c-0.3,0.9-0.5,2-0.6,3.1c-0.1,1.1-0.2,2.2-0.2,3.3v61.5
			c0,2.6,0.5,4.4,1.6,5.3c1.1,0.9,2.9,1.4,5.6,1.4v2.3c-1.2-0.1-2.8-0.2-5-0.3c-2.2-0.1-4.4-0.2-6.8-0.2c-3.1,0-6.1,0.1-9,0.2
			c-2.9,0.1-5.1,0.2-6.7,0.3v-2.3c3.3,0,5.8-0.5,7.7-1.6c1.9-1.1,2.8-3.1,2.8-6.3v-58.3c1-1,2-2,2.9-3.1c0.9-1,1.9-2,2.9-3.1
			C390.5,194.1,391.5,193.1,392.4,192z"/>
		<path class="st0" d="M454.9,192.6v45.6c0,3.3,0.6,5.7,1.8,7.3c1.2,1.6,3.4,2.3,6.5,2.3v2.3c-2.3-0.2-4.5-0.3-6.8-0.3
			c-2.1,0-4.1,0.1-6.1,0.3c-1.9,0.2-3.7,0.6-5.3,1.2v-12.9c-1.8,4.7-4.4,8.1-7.7,10.1c-3.3,2-6.7,3-10.2,3c-2.5,0-4.8-0.4-6.7-1.1
			c-1.9-0.7-3.5-1.7-4.7-3.1c-1.4-1.5-2.3-3.3-2.8-5.7c-0.5-2.3-0.8-5.2-0.8-8.6v-27.4c0-3.3-0.6-5.7-1.7-7.2
			c-1.2-1.6-3.3-2.3-6.5-2.3v-2.3c2.3,0.2,4.6,0.3,6.8,0.3c2.1,0,4.1-0.1,6.1-0.4c1.9-0.3,3.7-0.6,5.3-1.1v42.8
			c0,2.3,0.1,4.3,0.4,6.2c0.3,1.9,1,3.4,2.2,4.6c1.2,1.2,3.1,1.7,5.7,1.7c2.8,0,5.4-0.9,7.6-2.6c2.2-1.7,4-4.1,5.2-7.1
			c1.3-3,1.9-6.3,1.9-10v-22.6c0-3.3-0.6-5.7-1.7-7.2c-1.2-1.6-3.3-2.3-6.5-2.3v-2.3c2.3,0.2,4.6,0.3,6.8,0.3c2.1,0,4.1-0.1,6.1-0.4
			C451.5,193.5,453.3,193.1,454.9,192.6z"/>
		<path class="st0" d="M495.2,192.3c6.4,0,11.4,1.9,15,5.8c3.6,3.9,5.4,9.9,5.4,18.2h-38.5l-0.1-2.1h28.1c0.1-3.6-0.1-6.9-0.9-9.9
			c-0.7-3-1.9-5.4-3.4-7.3c-1.6-1.8-3.6-2.7-6.1-2.7c-3.3,0-6.3,1.7-8.9,5c-2.6,3.3-4.1,8.7-4.6,15.9l0.3,0.4
			c-0.1,1.1-0.3,2.3-0.3,3.6c-0.1,1.3-0.1,2.6-0.1,3.9c0,4.9,0.8,9.2,2.4,12.8c1.6,3.6,3.7,6.3,6.3,8.1c2.6,1.9,5.2,2.8,8,2.8
			c2.2,0,4.3-0.3,6.2-1c2-0.7,3.8-1.8,5.5-3.4c1.7-1.6,3.1-3.7,4.4-6.4l2.2,0.9c-0.8,2.4-2.1,4.7-3.9,7c-1.8,2.3-4.1,4.1-6.9,5.5
			c-2.8,1.4-6,2.1-9.6,2.1c-5.2,0-9.7-1.2-13.5-3.6c-3.7-2.4-6.6-5.7-8.6-10c-2-4.3-3-9.1-3-14.7c0-6.4,1-11.9,3.1-16.5
			c2-4.6,4.9-8.2,8.6-10.7C486,193.5,490.3,192.3,495.2,192.3z"/>
		<path class="st0" d="M534.5,237.5c1.6,0,2.9,0.3,3.9,1c1,0.7,1.9,1.5,2.5,2.5c0.8,1.2,1.3,2.4,1.5,3.8c0.2,1.4,0.3,2.5,0.3,3.4
			c0,3.6-0.9,6.8-2.7,9.7c-1.8,2.9-4.7,5.3-8.5,7.1l-1-2c2.3-0.9,4.2-2.4,5.8-4.5c1.6-2,2.5-4.1,2.5-6.2c0-0.9-0.1-1.6-0.3-2.3
			c-1.2,0.9-2.5,1.4-4,1.4c-1.9,0-3.5-0.6-4.9-1.9c-1.4-1.2-2.1-2.9-2.1-5.1c0-2,0.7-3.7,2.1-5C531,238.2,532.6,237.5,534.5,237.5z"
			/>
		<path class="st0" d="M99.4,291.5v30.7H135v-30.7h9.6v73.5H135v-34.5H99.4v34.5h-9.5v-73.5H99.4z"/>
		<path class="st0" d="M166,340.3c0.2,13,8.5,18.3,18.1,18.3c6.9,0,11-1.2,14.6-2.7l1.6,6.9c-3.4,1.5-9.2,3.3-17.6,3.3
			c-16.2,0-25.9-10.7-25.9-26.6c0-15.9,9.4-28.5,24.7-28.5c17.2,0,21.8,15.2,21.8,24.9c0,2-0.2,3.5-0.3,4.5H166z M194.2,333.4
			c0.1-6.1-2.5-15.6-13.3-15.6c-9.7,0-14,8.9-14.7,15.6H194.2z"/>
		<path class="st0" d="M215.3,328.6c0-6.2-0.1-11.6-0.4-16.5h8.4l0.3,10.4h0.4c2.4-7.1,8.2-11.6,14.6-11.6c1.1,0,1.9,0.1,2.7,0.3v9
			c-1-0.2-2-0.3-3.3-0.3c-6.8,0-11.6,5.1-12.9,12.3c-0.2,1.3-0.4,2.8-0.4,4.5v28.1h-9.5V328.6z"/>
		<path class="st0" d="M368.1,338.1c0,19.5-13.5,28-26.3,28c-14.3,0-25.3-10.5-25.3-27.1c0-17.7,11.6-28,26.2-28
			C357.8,311,368.1,322,368.1,338.1z M326.2,338.7c0,11.6,6.7,20.3,16,20.3c9.2,0,16-8.6,16-20.5c0-8.9-4.5-20.3-15.8-20.3
			C331.1,318.2,326.2,328.6,326.2,338.7z"/>
		<path class="st0" d="M380.2,326.5c0-5.5-0.1-9.9-0.4-14.3h8.5l0.5,8.7h0.2c2.6-5,8.7-9.9,17.4-9.9c7.3,0,18.6,4.4,18.6,22.5v31.5
			h-9.6v-30.4c0-8.5-3.2-15.6-12.2-15.6c-6.3,0-11.2,4.5-12.9,9.8c-0.4,1.2-0.7,2.8-0.7,4.5v31.7h-9.6V326.5z"/>
		<path class="st0" d="M451.4,297.3c0.1,3.3-2.3,5.9-6.1,5.9c-3.4,0-5.8-2.6-5.8-5.9c0-3.4,2.5-6,6-6
			C449.1,291.4,451.4,294,451.4,297.3z M440.7,364.9v-52.8h9.6v52.8H440.7z"/>
		<path class="st0" d="M513.9,338.1c0,19.5-13.5,28-26.3,28c-14.3,0-25.3-10.5-25.3-27.1c0-17.7,11.6-28,26.2-28
			C503.7,311,513.9,322,513.9,338.1z M472.1,338.7c0,11.6,6.7,20.3,16,20.3c9.2,0,16-8.6,16-20.5c0-8.9-4.5-20.3-15.8-20.3
			C477,318.2,472.1,328.6,472.1,338.7z"/>
		<path class="st0" d="M570.2,350.6c0,5.5,0.1,10.2,0.4,14.4h-8.5l-0.5-8.6h-0.2c-2.5,4.3-8.1,9.8-17.4,9.8
			c-8.3,0-18.2-4.6-18.2-23.1v-30.9h9.6v29.2c0,10,3.1,16.8,11.8,16.8c6.4,0,10.9-4.5,12.6-8.7c0.5-1.4,0.9-3.2,0.9-4.9v-32.4h9.6
			V350.6z"/>
		<path class="st0" d="M584.8,355.1c2.8,1.9,7.8,3.8,12.6,3.8c7,0,10.2-3.5,10.2-7.8c0-4.6-2.7-7.1-9.8-9.7c-9.5-3.4-14-8.6-14-14.9
			c0-8.5,6.9-15.5,18.2-15.5c5.3,0,10,1.5,13,3.3l-2.4,7c-2.1-1.3-5.9-3.1-10.8-3.1c-5.7,0-8.8,3.3-8.8,7.2c0,4.4,3.2,6.3,10,8.9
			c9.2,3.5,13.8,8.1,13.8,15.9c0,9.3-7.2,15.8-19.7,15.8c-5.8,0-11.1-1.4-14.8-3.6L584.8,355.1z"/>
		<path class="st0" d="M621.9,378.4c2.4-6.4,5.3-18.1,6.5-26.1l10.7-1.1c-2.5,9.3-7.3,21.4-10.4,26.5L621.9,378.4z"/>
	</g>
	<g>
		<path class="st0" d="M1147.8,57.8c1.5,0.1,3.5,0.1,5.9,0.2c2.4,0.1,4.8,0.1,7.2,0.1c3.3,0,6.6,0,9.6-0.1c3.1-0.1,5.2-0.1,6.5-0.1
			c5.8,0,10.6,0.8,14.4,2.5c3.8,1.7,6.7,3.9,8.5,6.8c1.9,2.9,2.8,6.1,2.8,9.6c0,2.2-0.4,4.5-1.3,7c-0.9,2.5-2.3,4.8-4.4,7
			c-2.1,2.2-5,4-8.6,5.4s-8.2,2.1-13.8,2.1h-10.3v-2.2h9.2c5.1,0,8.9-0.8,11.6-2.5c2.7-1.6,4.5-3.8,5.4-6.5c1-2.7,1.4-5.8,1.4-9.1
			c0-5.7-1.3-10.2-4-13.4c-2.7-3.2-7.2-4.7-13.7-4.7c-3.3,0-5.4,0.6-6.4,1.9c-1,1.2-1.5,3.7-1.5,7.5v54.1c0,2.6,0.2,4.6,0.6,5.9
			c0.4,1.3,1.3,2.2,2.5,2.6c1.2,0.4,3.1,0.7,5.5,0.9v2.2c-1.6-0.1-3.7-0.2-6.1-0.3c-2.5,0-4.9-0.1-7.4-0.1c-2.8,0-5.4,0-7.8,0.1
			c-2.4,0-4.4,0.1-5.9,0.3v-2.2c2.4-0.1,4.3-0.4,5.5-0.9c1.2-0.4,2.1-1.3,2.5-2.6c0.4-1.3,0.6-3.3,0.6-5.9V69.3
			c0-2.7-0.2-4.7-0.6-5.9c-0.4-1.3-1.3-2.1-2.5-2.6c-1.2-0.5-3.1-0.7-5.5-0.8V57.8z M1164.8,96.5c3.8,0.1,6.9,0.3,9.1,0.5
			c2.2,0.2,4,0.3,5.4,0.5c1.4,0.1,2.7,0.3,4,0.5c4.8,0.8,8.2,2.3,10.3,4.4c2.1,2.1,3.6,5.5,4.6,10l2.7,11.1c0.7,3.2,1.4,5.5,2.2,6.9
			c0.7,1.4,1.9,2.1,3.5,2c1.2-0.1,2.2-0.5,3-1.2c0.8-0.7,1.7-1.7,2.6-2.9l1.6,1.2c-1.5,2.3-3,4-4.6,5.2s-3.9,1.8-6.8,1.8
			c-2.6,0-5-0.8-6.9-2.4c-2-1.6-3.5-4.7-4.5-9.4l-2.4-10.9c-0.6-3.1-1.4-5.8-2.2-8.1c-0.8-2.3-2-4.1-3.4-5.4c-1.5-1.3-3.6-2-6.5-2
			H1165L1164.8,96.5z"/>
		<path class="st0" d="M1241.9,77.3c4.6,0,8.7,1,12.3,3.1c3.6,2,6.5,5.2,8.7,9.6c2.2,4.4,3.3,10,3.3,17c0,7-1.1,12.6-3.3,17
			c-2.2,4.3-5.1,7.5-8.7,9.5s-7.7,3.1-12.3,3.1c-4.5,0-8.6-1-12.2-3.1c-3.7-2-6.6-5.2-8.8-9.5c-2.2-4.3-3.3-10-3.3-17
			c0-7,1.1-12.6,3.3-17c2.2-4.4,5.1-7.6,8.8-9.6C1233.3,78.3,1237.4,77.3,1241.9,77.3z M1241.9,79.4c-4.1,0-7.4,2.1-10,6.4
			c-2.6,4.3-3.9,11.3-3.9,21c0,9.7,1.3,16.7,3.9,21c2.6,4.3,5.9,6.4,10,6.4c4.1,0,7.4-2.1,10-6.4c2.6-4.3,3.9-11.2,3.9-21
			c0-9.7-1.3-16.8-3.9-21C1249.2,81.6,1245.9,79.4,1241.9,79.4z"/>
		<path class="st0" d="M1309.5,77.3c2.5,0,4.7,0.4,6.5,1.1c1.9,0.7,3.4,1.7,4.6,3.1c1.4,1.5,2.3,3.3,2.8,5.7
			c0.5,2.3,0.7,5.2,0.7,8.6v29.1c0,3.1,0.6,5.1,1.9,6.2c1.2,1.1,3.3,1.6,6.2,1.6v2.3c-1.2-0.1-3.1-0.2-5.6-0.3
			c-2.5-0.1-4.9-0.2-7.3-0.2s-4.6,0.1-6.9,0.2s-3.9,0.2-5.1,0.3v-2.3c2.6,0,4.4-0.5,5.4-1.6c1.1-1.1,1.6-3.2,1.6-6.2V93.3
			c0-2.3-0.1-4.3-0.4-6.2c-0.3-1.9-1-3.4-2.1-4.6c-1.1-1.2-3-1.7-5.6-1.7c-2.8,0-5.3,0.9-7.4,2.6c-2.2,1.7-3.9,4.1-5.1,7.1
			c-1.2,3-1.9,6.4-1.9,10.1v24.2c0,3.1,0.5,5.1,1.6,6.2c1.1,1.1,2.9,1.6,5.4,1.6v2.3c-1.1-0.1-2.8-0.2-5.1-0.3
			c-2.2-0.1-4.5-0.2-6.9-0.2s-4.8,0.1-7.3,0.2c-2.5,0.1-4.3,0.2-5.6,0.3v-2.3c2.9,0,5-0.5,6.3-1.6c1.2-1.1,1.9-3.2,1.9-6.2V90.7
			c0-3.3-0.6-5.7-1.7-7.3c-1.1-1.6-3.3-2.3-6.4-2.3v-2.3c2.3,0.2,4.5,0.3,6.6,0.3c2.1,0,4-0.1,5.9-0.4c1.9-0.3,3.6-0.6,5.2-1.1v12.9
			c1.9-4.7,4.4-8.1,7.6-10.1C1302.8,78.3,1306.1,77.3,1309.5,77.3z M1341.7,77.3c2.5,0,4.7,0.4,6.5,1.1c1.9,0.7,3.4,1.7,4.6,3.1
			c1.4,1.5,2.3,3.3,2.8,5.7c0.5,2.3,0.7,5.2,0.7,8.6v29.1c0,3.1,0.6,5.1,1.9,6.2c1.2,1.1,3.3,1.6,6.2,1.6v2.3
			c-1.2-0.1-3.1-0.2-5.6-0.3c-2.5-0.1-4.9-0.2-7.3-0.2s-4.6,0.1-6.9,0.2c-2.2,0.1-3.9,0.2-5.1,0.3v-2.3c2.6,0,4.4-0.5,5.4-1.6
			c1.1-1.1,1.6-3.2,1.6-6.2V93.3c0-2.3-0.1-4.3-0.4-6.2c-0.3-1.9-1-3.4-2.1-4.6c-1.1-1.2-3-1.7-5.6-1.7c-2.8,0-5.3,0.9-7.4,2.6
			c-2.2,1.7-3.9,4.1-5.1,7.1c-1.2,3-1.9,6.3-1.9,10l-0.3-10.1c1.9-5,4.5-8.4,7.8-10.3C1334.9,78.2,1338.2,77.3,1341.7,77.3z"/>
		<path class="st0" d="M1384.3,135.7c-2.9,0-5.4-0.6-7.6-1.7s-3.8-2.7-4.9-4.7c-1.1-2-1.7-4.4-1.7-7.1c0-3.2,0.7-5.8,2.2-7.9
			c1.5-2,3.3-3.7,5.6-4.9c2.3-1.2,4.7-2.3,7.2-3.1c2.5-0.8,4.9-1.6,7.2-2.4c2.3-0.8,4.1-1.7,5.6-2.7c1.5-1,2.2-2.4,2.2-4v-6.8
			c0-3.1-0.4-5.4-1.3-7c-0.9-1.6-2.1-2.7-3.6-3.2c-1.5-0.5-3.2-0.8-5-0.8c-1.8,0-3.7,0.3-5.7,0.8c-2,0.5-3.7,1.6-4.9,3.2
			c1.4,0.3,2.5,1,3.5,2.2c1,1.2,1.5,2.7,1.5,4.5c0,1.8-0.6,3.3-1.7,4.3c-1.1,1.1-2.6,1.6-4.4,1.6c-2.1,0-3.6-0.7-4.5-2
			c-1-1.3-1.4-2.9-1.4-4.5c0-1.9,0.5-3.4,1.4-4.6c0.9-1.2,2.1-2.3,3.5-3.3c1.6-1.2,3.8-2.2,6.4-3c2.6-0.8,5.5-1.3,8.8-1.3
			c2.9,0,5.4,0.3,7.5,1c2.1,0.7,3.8,1.7,5.1,3c1.9,1.7,3.1,3.9,3.6,6.4c0.6,2.5,0.9,5.5,0.9,9V127c0,1.8,0.3,3.1,0.8,3.9
			c0.5,0.8,1.4,1.2,2.5,1.2c0.8,0,1.5-0.2,2.2-0.5c0.7-0.4,1.6-0.9,2.6-1.7l1.2,1.9c-1.5,1.2-2.9,2.1-4.3,2.9
			c-1.4,0.8-3.2,1.1-5.4,1.1c-2.1,0-3.8-0.4-5.1-1.1c-1.4-0.7-2.4-1.8-3-3.2c-0.7-1.4-1-3.2-1-5.4c-1.9,3.3-4.2,5.7-6.9,7.3
			C1390.6,134.9,1387.6,135.7,1384.3,135.7z M1388.1,131.3c2.4,0,4.5-0.7,6.6-2.1c2-1.4,3.9-3.5,5.5-6.2v-21.4
			c-0.9,1.2-2.1,2.3-3.7,3.1c-1.6,0.8-3.4,1.7-5.3,2.5c-1.9,0.8-3.8,1.8-5.5,2.9c-1.7,1.1-3.2,2.6-4.3,4.4c-1.1,1.8-1.7,4.2-1.7,7.1
			c0,2.9,0.8,5.2,2.3,7C1383.4,130.5,1385.5,131.3,1388.1,131.3z"/>
		<path class="st0" d="M1458.2,77.3c2.7,0,5,0.4,6.8,1.1c1.8,0.7,3.3,1.7,4.5,3.1c1.4,1.5,2.3,3.3,2.9,5.5c0.6,2.2,0.9,5.1,0.9,8.8
			v29.1c0,3.1,0.6,5.1,1.9,6.2c1.2,1.1,3.3,1.6,6.2,1.6v2.3c-1.2-0.1-3.1-0.2-5.6-0.3c-2.5-0.1-4.9-0.2-7.3-0.2s-4.6,0.1-6.9,0.2
			s-3.9,0.2-5.1,0.3v-2.3c2.6,0,4.4-0.5,5.4-1.6c1.1-1.1,1.6-3.2,1.6-6.2V93.3c0-2.3-0.2-4.3-0.5-6.2c-0.4-1.9-1.2-3.4-2.4-4.6
			c-1.2-1.2-3.2-1.7-5.7-1.7c-3,0-5.6,0.9-7.9,2.6c-2.2,1.7-4,4.1-5.2,7.1c-1.2,3-1.9,6.4-1.9,10.1v24.2c0,3.1,0.5,5.1,1.6,6.2
			c1.1,1.1,2.9,1.6,5.4,1.6v2.3c-1.1-0.1-2.8-0.2-5.1-0.3c-2.2-0.1-4.5-0.2-6.9-0.2s-4.8,0.1-7.3,0.2c-2.5,0.1-4.3,0.2-5.6,0.3v-2.3
			c2.9,0,5-0.5,6.3-1.6c1.2-1.1,1.9-3.2,1.9-6.2V90.7c0-3.3-0.6-5.7-1.7-7.3c-1.1-1.6-3.3-2.3-6.4-2.3v-2.3c2.3,0.2,4.5,0.3,6.6,0.3
			c2.1,0,4-0.1,5.9-0.4c1.9-0.3,3.6-0.6,5.2-1.1v12.9c1.9-4.9,4.4-8.4,7.7-10.3C1451.1,78.2,1454.6,77.3,1458.2,77.3z"/>
		<path class="st0" d="M1503.3,60.7v18.2h15.8v2.2h-15.8v42.2c0,3.4,0.6,5.8,1.8,7.2c1.2,1.4,2.9,2.1,5,2.1c2.1,0,4-0.9,5.6-2.7
			c1.6-1.8,2.9-4.8,4.1-9l2.1,0.5c-0.7,4.2-2.1,7.8-4.2,10.7c-2.1,2.9-5.3,4.4-9.7,4.4c-2.4,0-4.4-0.3-6-0.9c-1.6-0.6-3-1.5-4.2-2.7
			c-1.6-1.7-2.7-3.7-3.3-6c-0.6-2.3-0.9-5.4-0.9-9.3V81.1h-10.3v-2.2h10.3V62.2c1.8-0.1,3.5-0.2,5.1-0.4
			C1500.5,61.6,1502,61.2,1503.3,60.7z"/>
		<path class="st0" d="M1541.7,77.6v47.2c0,3.1,0.6,5.1,1.9,6.2c1.2,1.1,3.3,1.6,6.3,1.6v2.3c-1.2-0.1-3-0.2-5.5-0.3
			c-2.5-0.1-4.9-0.2-7.4-0.2c-2.4,0-4.9,0.1-7.4,0.2c-2.5,0.1-4.3,0.2-5.6,0.3v-2.3c2.9,0,5-0.5,6.3-1.6c1.2-1.1,1.9-3.2,1.9-6.2
			V90.7c0-3.3-0.6-5.7-1.7-7.3c-1.1-1.6-3.3-2.3-6.4-2.3v-2.3c2.3,0.2,4.5,0.3,6.6,0.3c2.1,0,4-0.1,5.9-0.4
			C1538.4,78.5,1540.1,78.1,1541.7,77.6z M1536.1,51.5c1.9,0,3.5,0.7,4.8,2.1c1.4,1.4,2,3,2,4.9c0,1.9-0.7,3.5-2,4.9
			c-1.4,1.4-3,2.1-4.8,2.1c-1.9,0-3.5-0.7-4.8-2.1c-1.4-1.4-2-3-2-4.9c0-1.9,0.7-3.5,2-4.9C1532.7,52.2,1534.3,51.5,1536.1,51.5z"/>
		<path class="st0" d="M1581.9,77.3c2.3,0,4.5,0.3,6.6,0.9c2.1,0.6,4.1,1.5,5.8,2.6c1.6,1.1,2.9,2.3,3.7,3.8s1.3,3,1.3,4.6
			c0,2-0.5,3.5-1.6,4.5c-1.1,1.1-2.4,1.6-4.1,1.6c-1.6,0-2.9-0.5-4.1-1.4c-1.2-0.9-1.8-2.3-1.8-4c0-1.7,0.4-3,1.3-4
			c0.9-1,1.9-1.7,3.2-2c-0.7-1.3-2-2.4-3.8-3.3s-3.8-1.3-5.8-1.3c-1.8,0-3.6,0.4-5.3,1.3c-1.8,0.9-3.4,2.3-4.9,4.3
			c-1.5,2-2.7,4.7-3.6,8.2c-0.9,3.5-1.4,7.8-1.4,12.9c0,6.4,0.7,11.5,2.1,15.3c1.4,3.8,3.3,6.5,5.6,8.1c2.3,1.6,4.9,2.5,7.6,2.5
			c1.9,0,3.7-0.4,5.7-1.1c1.9-0.7,3.7-1.9,5.4-3.5c1.7-1.6,3.2-3.8,4.4-6.6l2,0.8c-0.7,2.3-1.9,4.7-3.5,7c-1.6,2.4-3.8,4.3-6.4,5.8
			c-2.6,1.5-5.9,2.3-9.7,2.3c-4.4,0-8.4-1.2-12-3.5c-3.6-2.3-6.4-5.6-8.5-10c-2.1-4.3-3.2-9.5-3.2-15.4c0-6,1-11.2,3.2-15.8
			c2.1-4.5,5-8.1,8.8-10.7C1572.8,78.6,1577.1,77.3,1581.9,77.3z"/>
		<path class="st0" d="M1617.8,122.5c1.6,0,2.9,0.3,3.9,1c1,0.7,1.9,1.5,2.5,2.5c0.8,1.2,1.3,2.4,1.5,3.8c0.2,1.4,0.3,2.5,0.3,3.4
			c0,3.6-0.9,6.8-2.7,9.7c-1.8,2.9-4.7,5.3-8.5,7.1l-1-2c2.3-0.9,4.2-2.4,5.8-4.5c1.6-2,2.5-4.1,2.5-6.2c0-0.9-0.1-1.6-0.3-2.3
			c-1.2,0.9-2.5,1.4-4,1.4c-1.9,0-3.5-0.6-4.9-1.9c-1.4-1.2-2.1-2.9-2.1-5.1c0-2,0.7-3.7,2.1-5
			C1614.3,123.2,1615.9,122.5,1617.8,122.5z"/>
		<path class="st0" d="M1640.8,61.5h9.5V127h31.4v8h-40.9V61.5z"/>
		<path class="st0" d="M1738.2,108.1c0,19.5-13.5,28-26.3,28c-14.3,0-25.3-10.5-25.3-27.1c0-17.7,11.6-28,26.2-28
			C1727.9,81,1738.2,92,1738.2,108.1z M1696.3,108.7c0,11.6,6.7,20.3,16,20.3c9.2,0,16-8.6,16-20.5c0-8.9-4.5-20.3-15.8-20.3
			C1701.2,88.2,1696.3,98.6,1696.3,108.7z"/>
		<path class="st0" d="M1753.2,82.2l10.4,29.7c1.7,4.8,3.2,9.2,4.3,13.5h0.3c1.2-4.4,2.7-8.7,4.5-13.5l10.2-29.7h10l-20.7,52.8h-9.2
			L1743,82.2H1753.2z"/>
		<path class="st0" d="M1806.2,110.3c0.2,13,8.5,18.3,18.1,18.3c6.9,0,11-1.2,14.6-2.7l1.6,6.9c-3.4,1.5-9.2,3.3-17.6,3.3
			c-16.2,0-25.9-10.7-25.9-26.6c0-15.9,9.4-28.5,24.7-28.5c17.2,0,21.8,15.2,21.8,24.9c0,2-0.2,3.5-0.3,4.5H1806.2z M1834.3,103.4
			c0.1-6.1-2.5-15.6-13.3-15.6c-9.7,0-14,8.9-14.7,15.6H1834.3z"/>
		<path class="st0" d="M1848,148.4c2.4-6.4,5.3-18.1,6.5-26.1l10.7-1.1c-2.5,9.3-7.3,21.4-10.4,26.5L1848,148.4z"/>
		<path class="st0" d="M1316.7,162.1l1.5,1.4c-6.1,7.1-10.4,14.9-12.8,23.4c-2.4,8.5-3.6,18.2-3.6,29.1s1.2,20.6,3.6,29.1
			s6.7,16.3,12.8,23.4l-1.5,1.4c-7.3-6.7-13.2-14.5-17.5-23.5c-4.3-9-6.5-19.1-6.5-30.4c0-11.3,2.2-21.4,6.5-30.4
			C1303.5,176.6,1309.3,168.8,1316.7,162.1z"/>
		<path class="st0" d="M1382.5,172.8c-0.3,2.5-0.5,5-0.6,7.4c-0.1,2.4-0.2,4.2-0.2,5.5c0,1.3,0,2.6,0.1,3.8c0.1,1.2,0.1,2.2,0.2,3
			h-2.5c-0.4-4.3-1.1-7.7-1.9-10.2c-0.8-2.5-2.2-4.3-4.1-5.3c-1.9-1.1-4.8-1.6-8.7-1.6h-9c-2.5,0-4.3,0.2-5.6,0.6
			c-1.3,0.4-2.1,1.2-2.6,2.5c-0.4,1.3-0.7,3.3-0.7,5.9v54.1c0,2.6,0.2,4.6,0.7,5.9c0.4,1.3,1.3,2.2,2.6,2.6c1.3,0.4,3.1,0.6,5.6,0.6
			h8c4.6,0,8-0.6,10.4-1.9c2.4-1.2,4.1-3.3,5.1-6.1c1.1-2.8,1.8-6.6,2.3-11.4h2.5c-0.2,2-0.3,4.6-0.3,7.9c0,1.4,0.1,3.4,0.2,5.9
			c0.1,2.6,0.3,5.3,0.6,8c-3.7-0.1-7.9-0.2-12.5-0.3c-4.7,0-8.8-0.1-12.4-0.1c-1.6,0-3.7,0-6.2,0s-5.2,0-8.1,0.1
			c-2.9,0-5.9,0.1-8.8,0.1c-3,0-5.8,0.1-8.5,0.2v-2.2c2.5-0.1,4.3-0.4,5.6-0.9c1.3-0.4,2.1-1.3,2.6-2.6c0.4-1.3,0.7-3.3,0.7-5.9
			v-54.1c0-2.7-0.2-4.7-0.7-5.9c-0.4-1.3-1.3-2.1-2.6-2.6c-1.3-0.5-3.1-0.7-5.6-0.8v-2.2c2.7,0.1,5.5,0.1,8.5,0.2
			c3,0,5.9,0.1,8.8,0.1c2.9,0,5.6,0.1,8.1,0.1s4.6,0,6.2,0c3.3,0,7.1,0,11.4-0.1C1375.4,173,1379.2,172.9,1382.5,172.8z M1363.8,210
			v2.2h-20V210H1363.8z M1366.9,195.6c-0.3,4.1-0.4,7.3-0.4,9.5c0,2.2,0.1,4.2,0.1,6c0,1.8,0,3.8,0.1,6c0.1,2.2,0.3,5.3,0.5,9.5
			h-2.5c-0.3-2.3-0.6-4.6-1-6.8c-0.4-2.2-1.3-4-2.6-5.5c-1.3-1.4-3.6-2.1-6.8-2.1V210c2.4,0,4.2-0.5,5.5-1.5c1.3-1,2.2-2.2,2.8-3.8
			c0.6-1.5,1-3.1,1.2-4.7c0.2-1.6,0.4-3.1,0.7-4.4H1366.9z"/>
		<path class="st0" d="M1416,221.5c0.3,0.9,0.6,1.9,1,2.9l-9,11.8c-1.9,2.5-2.9,4.5-3,6.2c-0.1,1.7,0.6,2.9,2,3.8
			c1.5,0.8,3.5,1.4,6,1.6v2.2c-1.2-0.1-2.6-0.1-4.1-0.2c-1.5,0-3-0.1-4.4-0.1c-1.4,0-2.7-0.1-3.9-0.1c-1.7,0-3.2,0-4.5,0.1
			c-1.3,0-2.6,0.1-3.8,0.3v-2.2c1.4-0.1,2.8-0.8,4.3-1.9c1.5-1.1,3.3-3,5.3-5.7L1416,221.5z M1413.1,193.8v2.3c-1.4,0-2.5,0.3-3.5,1
			c-0.9,0.7-1.1,1.6-0.3,2.7l29.1,42.4c1.2,1.8,2.3,3.1,3.3,3.9c0.9,0.8,2.1,1.3,3.5,1.6v2.3c-0.7-0.1-1.8-0.2-3.3-0.3
			c-1.5-0.1-3-0.2-4.4-0.2c-2.3,0-4.7,0.1-7.2,0.2c-2.6,0.1-4.5,0.2-5.6,0.3v-2.3c1.5,0,2.7-0.3,3.6-1c0.9-0.7,1-1.6,0.2-2.7
			l-29.1-42.4c-1.5-2.1-2.6-3.5-3.5-4.2c-0.9-0.7-2-1.1-3.3-1.3v-2.3c0.7,0.1,1.9,0.2,3.4,0.3c1.5,0.1,3,0.2,4.4,0.2
			c2.3,0,4.8-0.1,7.3-0.2C1410,194,1411.9,193.9,1413.1,193.8z M1442.9,193.8v2.2c-1.4,0.1-2.9,0.9-4.5,2.1
			c-1.6,1.3-3.3,3.1-5.1,5.5l-12.5,17.3c-0.3-0.9-0.6-1.9-0.9-2.8l8.5-11.9c1.6-2.3,2.6-4.1,3.1-5.6c0.4-1.5,0.2-2.6-0.7-3.3
			c-0.9-0.8-2.7-1.2-5.3-1.4v-2.2c1.9,0.1,3.5,0.1,4.7,0.2c1.3,0.1,2.7,0.1,4.4,0.1c1.7,0,3.2,0,4.5-0.1
			C1440.5,193.9,1441.8,193.9,1442.9,193.8z"/>
		<path class="st0" d="M1475.1,192.3c2.3,0,4.6,0.3,6.8,0.9c2.2,0.6,4.1,1.5,5.9,2.6c1.7,1.1,2.9,2.3,3.8,3.8c0.9,1.4,1.3,3,1.3,4.6
			c0,2-0.5,3.5-1.6,4.5c-1.1,1.1-2.5,1.6-4.1,1.6c-1.6,0-3-0.5-4.2-1.4c-1.2-0.9-1.8-2.3-1.8-4c0-1.7,0.5-3,1.4-4c0.9-1,2-1.7,3.2-2
			c-0.7-1.3-2-2.4-3.9-3.3c-1.9-0.9-3.8-1.3-5.9-1.3c-1.8,0-3.6,0.4-5.5,1.3c-1.8,0.9-3.5,2.3-5,4.3c-1.5,2-2.8,4.7-3.7,8.2
			c-0.9,3.5-1.4,7.8-1.4,12.9c0,6.4,0.7,11.5,2.2,15.3c1.5,3.8,3.4,6.5,5.7,8.1c2.4,1.6,5,2.5,7.8,2.5c1.9,0,3.8-0.4,5.8-1.1
			c2-0.7,3.8-1.9,5.6-3.5c1.7-1.6,3.2-3.8,4.5-6.6l2.1,0.8c-0.7,2.3-1.9,4.7-3.6,7c-1.7,2.4-3.9,4.3-6.5,5.8c-2.7,1.5-6,2.3-9.9,2.3
			c-4.5,0-8.6-1.2-12.2-3.5c-3.6-2.3-6.5-5.7-8.7-10c-2.1-4.3-3.2-9.5-3.2-15.4c0-6,1.1-11.2,3.2-15.8c2.1-4.5,5.1-8.1,9-10.7
			C1465.8,193.6,1470.2,192.3,1475.1,192.3z"/>
		<path class="st0" d="M1518.9,192.6v47.2c0,3.1,0.6,5.1,1.9,6.2c1.3,1.1,3.4,1.6,6.4,1.6v2.3c-1.2-0.1-3.1-0.2-5.6-0.3
			s-5-0.2-7.6-0.2c-2.5,0-5,0.1-7.5,0.2c-2.5,0.1-4.4,0.2-5.7,0.3v-2.3c3,0,5.1-0.5,6.4-1.6c1.3-1.1,1.9-3.2,1.9-6.2v-34.1
			c0-3.3-0.6-5.7-1.7-7.2c-1.2-1.6-3.3-2.3-6.5-2.3v-2.3c2.3,0.2,4.6,0.3,6.8,0.3c2.1,0,4.1-0.1,6.1-0.4
			C1515.6,193.5,1517.3,193.1,1518.9,192.6z M1513.3,166.5c1.9,0,3.5,0.7,4.9,2.1c1.4,1.4,2.1,3,2.1,4.9c0,1.9-0.7,3.5-2.1,4.9
			c-1.4,1.4-3,2.1-4.9,2.1c-1.9,0-3.5-0.7-4.9-2.1c-1.4-1.4-2.1-3-2.1-4.9c0-1.9,0.7-3.5,2.1-4.9
			C1509.7,167.2,1511.4,166.5,1513.3,166.5z"/>
		<path class="st0" d="M1550.3,175.7v18.2h16.1v2.2h-16.1v42.2c0,3.4,0.6,5.8,1.9,7.2c1.2,1.4,2.9,2.1,5.1,2.1s4.1-0.9,5.7-2.7
			c1.6-1.8,3-4.8,4.1-9l2.2,0.5c-0.7,4.2-2.2,7.8-4.3,10.7c-2.1,2.9-5.4,4.4-9.9,4.4c-2.5,0-4.5-0.3-6.1-0.9c-1.6-0.6-3-1.5-4.3-2.7
			c-1.6-1.7-2.7-3.7-3.3-6c-0.6-2.3-0.9-5.4-0.9-9.3v-36.5h-10.5v-2.2h10.5v-16.7c1.8-0.1,3.6-0.2,5.2-0.4
			C1547.4,176.6,1548.9,176.2,1550.3,175.7z"/>
		<path class="st0" d="M1597.9,192.3c6.4,0,11.4,1.9,15,5.8c3.6,3.9,5.4,9.9,5.4,18.2h-38.5l-0.1-2.1h28.1c0.1-3.6-0.1-6.9-0.9-9.9
			c-0.7-3-1.9-5.4-3.4-7.3c-1.6-1.8-3.6-2.7-6.1-2.7c-3.3,0-6.3,1.7-8.9,5c-2.6,3.3-4.1,8.7-4.6,15.9l0.3,0.4
			c-0.1,1.1-0.3,2.3-0.3,3.6c-0.1,1.3-0.1,2.6-0.1,3.9c0,4.9,0.8,9.2,2.4,12.8c1.6,3.6,3.7,6.3,6.3,8.1c2.6,1.9,5.2,2.8,8,2.8
			c2.2,0,4.3-0.3,6.2-1c2-0.7,3.8-1.8,5.5-3.4c1.7-1.6,3.1-3.7,4.4-6.4l2.2,0.9c-0.8,2.4-2.1,4.7-3.9,7c-1.8,2.3-4.1,4.1-6.9,5.5
			c-2.8,1.4-6,2.1-9.6,2.1c-5.2,0-9.7-1.2-13.5-3.6c-3.7-2.4-6.6-5.7-8.6-10c-2-4.3-3-9.1-3-14.7c0-6.4,1-11.9,3.1-16.5
			c2-4.6,4.9-8.2,8.6-10.7C1588.6,193.5,1592.9,192.3,1597.9,192.3z"/>
		<path class="st0" d="M1653.3,192.3c3.2,0,6.2,0.8,9,2.3c2.8,1.5,4.7,4.1,5.6,7.8l-1.4,1.1c-1-3.1-2.6-5.3-4.7-6.7
			c-2.1-1.4-4.7-2.1-7.6-2.1c-4.3,0-7.9,2.2-10.7,6.7c-2.9,4.4-4.3,11.3-4.2,20.5c0,5.9,0.6,10.8,1.7,14.7c1.1,3.9,2.8,6.8,5,8.7
			c2.2,1.9,4.9,2.9,8.1,2.9c3.1,0,5.8-1.3,8.3-3.9c2.5-2.6,4-6.5,4.5-11.6l1.3,1.5c-0.6,5.5-2.3,9.8-5.3,12.8
			c-2.9,3-6.9,4.5-11.9,4.5c-4.5,0-8.4-1.1-11.8-3.3s-6-5.5-7.7-9.8c-1.8-4.4-2.7-9.8-2.7-16.5c0-6.6,1.1-12.1,3.4-16.5
			c2.3-4.4,5.3-7.7,9-9.9C1644.8,193.4,1648.9,192.3,1653.3,192.3z M1676.1,164.5v73.6c0,3.3,0.6,5.7,1.8,7.2
			c1.2,1.6,3.4,2.3,6.5,2.3v2.3c-2.3-0.2-4.5-0.3-6.8-0.3c-2.1,0-4.1,0.1-6.1,0.3c-1.9,0.2-3.7,0.6-5.3,1.2v-73.6
			c0-3.3-0.6-5.7-1.7-7.2c-1.2-1.6-3.3-2.3-6.5-2.3v-2.3c2.3,0.2,4.6,0.3,6.8,0.3c2.1,0,4.1-0.1,6.1-0.4
			C1672.8,165.4,1674.5,165,1676.1,164.5z"/>
		<path class="st0" d="M1695.4,162.1c7.3,6.7,13.2,14.5,17.5,23.5c4.3,9,6.5,19.1,6.5,30.4c0,11.3-2.2,21.4-6.5,30.4
			c-4.3,9-10.2,16.8-17.5,23.5l-1.5-1.4c6.1-7.1,10.4-14.9,12.8-23.4s3.6-18.2,3.6-29.1s-1.2-20.6-3.6-29.1
			c-2.4-8.5-6.7-16.3-12.8-23.4L1695.4,162.1z"/>
		<path class="st0" d="M1270.7,364.9l-24-73.5h10.2l11.4,36.2c3.2,9.9,5.9,18.9,7.8,27.5h0.2c2.1-8.5,5.1-17.8,8.4-27.4l12.4-36.3
			h10.1l-26.3,73.5H1270.7z"/>
		<path class="st0" d="M1324,297.3c0.1,3.3-2.3,5.9-6.1,5.9c-3.4,0-5.8-2.6-5.8-5.9c0-3.4,2.5-6,6-6
			C1321.8,291.4,1324,294,1324,297.3z M1313.4,364.9v-52.8h9.6v52.8H1313.4z"/>
		<path class="st0" d="M1338.4,364.9c0.2-3.6,0.4-8.9,0.4-13.6v-63.8h9.5v33.1h0.2c3.4-5.9,9.5-9.7,18-9.7
			c13.1,0,22.4,10.9,22.2,26.9c0,18.9-11.9,28.2-23.7,28.2c-7.6,0-13.7-2.9-17.7-9.9h-0.3l-0.4,8.7H1338.4z M1348.4,343.8
			c0,1.2,0.2,2.4,0.4,3.5c1.9,6.7,7.4,11.2,14.4,11.2c10,0,16-8.2,16-20.3c0-10.6-5.5-19.6-15.7-19.6c-6.5,0-12.6,4.5-14.6,11.8
			c-0.2,1.1-0.5,2.4-0.5,3.9V343.8z"/>
		<path class="st0" d="M1406.3,340.3c0.2,13,8.5,18.3,18.1,18.3c6.9,0,11-1.2,14.6-2.7l1.6,6.9c-3.4,1.5-9.2,3.3-17.6,3.3
			c-16.2,0-25.9-10.7-25.9-26.6c0-15.9,9.4-28.5,24.7-28.5c17.2,0,21.8,15.2,21.8,24.9c0,2-0.2,3.5-0.3,4.5H1406.3z M1434.4,333.4
			c0.1-6.1-2.5-15.6-13.3-15.6c-9.7,0-14,8.9-14.7,15.6H1434.4z"/>
		<path class="st0" d="M1472.4,378.4c2.4-6.4,5.3-18.1,6.5-26.1l10.7-1.1c-2.5,9.3-7.3,21.4-10.4,26.5L1472.4,378.4z"/>
		<path class="st0" d="M1566,299.2c-2.6,0-5-0.3-7.1-0.9c-2.1-0.6-4.2-1.3-6.2-2.1c-2-0.8-4.1-1.5-6.2-2.1c-2.1-0.6-4.6-0.9-7.2-0.9
			c-2.5,0-4.3,0.6-5.5,1.9c-1.2,1.3-1.7,3-1.6,5.3c0.1,2.2,0.8,3.9,2.2,5.2c1.4,1.3,3.4,2.2,5.8,2.7l-0.3,2.2
			c-1.9-0.4-3.7-1-5.6-1.9c-1.8-0.9-3.3-2.2-4.5-4c-1.2-1.7-1.8-4-1.9-6.8c-0.1-3.9,0.9-7,3.2-9.6c2.3-2.5,5.4-3.8,9.5-3.8
			c2.4,0,4.6,0.4,6.5,1.2c1.9,0.8,3.7,1.8,5.5,2.9c1.7,1.1,3.4,2.3,5.1,3.4c1.7,1.2,3.5,2.1,5.3,2.9c1.9,0.8,4,1.2,6.3,1.2
			c3.7,0,7-0.5,9.8-1.4c2.8-0.9,6-2.1,9.5-3.5c1.5-2.3,3-4.1,4.5-5.3c1.5-1.2,2.7-1.4,3.8-0.4c0.9,0.7,0.8,1.7-0.1,2.9
			c-0.9,1.2-3.3,2.6-7.2,4c-6.2,4.1-11.3,9.6-15.3,16.4c-4,6.8-7.1,14.4-9.3,22.8l-6.8,26.4c-1.2,4.9-3,9.5-5.3,13.7
			c-2.3,4.2-5.1,7.5-8.5,10.1c-3.4,2.5-7.4,3.8-11.9,3.8c-2.1,0-4-0.2-5.7-0.7c-1.7-0.4-3-1.1-3.9-2c-0.9-0.9-1.5-2-1.5-3.3
			c-0.1-1.6,0.5-3.1,1.6-4.4c1.1-1.3,2.6-2,4.4-2c1.3,0,2.4,0.4,3.2,1.3c0.8,0.8,1.3,1.9,1.4,3.1c0.1,1.3-0.3,2.5-1.2,3.4
			c-0.9,1-1.9,1.8-3.2,2.3c0.5,0.1,1.1,0.3,1.7,0.4c0.7,0.1,1.3,0.2,2.1,0.2c3,0,5.5-1,7.4-2.9c2-2,3.6-4.6,4.9-7.9
			c1.3-3.3,2.5-7,3.5-11.1c1.1-4.1,2.1-8.3,3.2-12.6l3.3-12.8c1.4-5.5,3.2-10.3,5.5-14.5c2.3-4.2,4.9-8,7.8-11.4
			c2.9-3.4,6.2-6.5,9.6-9.4c3.5-2.9,7.2-5.7,11-8.4c-1.7,0.9-3.5,1.7-5.3,2.5c-1.8,0.8-3.6,1.5-5.5,2.1c-1.8,0.6-3.6,1.1-5.5,1.4
			C1569.5,299,1567.7,299.2,1566,299.2z M1577.5,325l-0.3,2.2h-35l0.3-2.2H1577.5z"/>
		<path class="st0" d="M1590.5,340.3c0-4.8,0.7-9.7,2.1-14.8c1.4-5.1,3.4-10,6-14.6c2.6-4.7,5.8-8.8,9.5-12.5
			c3.7-3.7,7.9-6.7,12.6-8.8c4.7-2.2,9.7-3.3,15.3-3.3c8.1,0,14.4,2.3,18.9,6.8c4.5,4.5,6.8,11,6.8,19.5c0,4.8-0.7,9.7-2.1,14.8
			c-1.4,5.1-3.4,9.9-6.1,14.6c-2.6,4.7-5.8,8.8-9.5,12.5c-3.7,3.7-8,6.7-12.6,8.8c-4.7,2.2-9.8,3.3-15.2,3.3
			c-8.1,0-14.4-2.3-18.9-6.8C1592.8,355.1,1590.5,348.7,1590.5,340.3z M1635,288.2c-3.3,0-6.6,1-9.9,3c-3.2,2-6.2,4.8-9,8.3
			c-2.8,3.5-5.2,7.6-7.3,12.1c-2.1,4.5-3.8,9.4-5,14.6c-1.2,5.2-1.8,10.4-1.8,15.6c0,7.1,1.4,12.7,4.2,16.7c2.8,4,6.4,6.1,10.8,6.1
			c3.3,0,6.6-1,9.9-3c3.2-2,6.2-4.8,9-8.3c2.8-3.5,5.2-7.6,7.3-12.1c2.1-4.5,3.8-9.4,5-14.6c1.2-5.2,1.8-10.4,1.8-15.6
			c0-7.1-1.4-12.7-4.2-16.7C1643,290.2,1639.4,288.2,1635,288.2z"/>
		<path class="st0" d="M1739.1,288.5c-1.2,0.1-2.2,0.3-3.2,0.8c-1,0.4-1.9,1-2.8,1.6c-2.4,1.7-5.2,4.5-8.3,8.1
			c-3.1,3.7-6.4,8.5-9.7,14.4c-3.3,6-6.6,13.3-9.8,22l-6.4,0.5c-0.3-3.3-0.7-7-1.1-10.9c-0.5-3.9-1-7.8-1.7-11.7
			c-0.7-3.9-1.5-7.4-2.5-10.6c-1-3.2-2.1-5.8-3.5-7.7c-1.3-1.9-2.9-2.9-4.7-2.9c-1.2,0-2.3,0.4-3.1,1.1c-0.8,0.8-1.5,2.1-2.1,4
			l-3.1,8.9h-2.4l3.6-10.6c1.1-3.2,2.4-5.6,3.8-7.1c1.5-1.6,3.7-2.3,6.9-2.3c4,0,7.2,1.6,9.5,4.9c2.3,3.2,4.1,7.8,5.5,13.7
			c1.3,5.9,2.4,12.9,3.3,20.9c2.8-7,5.9-13.2,9.4-18.6c3.5-5.4,7.2-10,11-13.8c1.7-1.7,3.7-3.3,5.9-4.8c2.3-1.5,4.6-2.3,6.9-2.3
			c2.5,0,4.1,0.7,5,2c0.9,1.3,1.2,2.8,1.1,4.4c-0.1,1.5-0.6,3-1.7,4.6c-1.1,1.6-2.6,2.4-4.7,2.4c-1.7,0-2.8-0.5-3.4-1.5
			c-0.6-1-0.8-2.1-0.8-3.2c0.1-1.2,0.4-2.3,1.1-3.4s1.5-2.1,2.4-3c-0.1,0-0.1,0-0.2,0C1739.2,288.5,1739.2,288.5,1739.1,288.5z
			 M1701.8,353.4c-0.7,2.6-0.9,4.6-0.8,5.9c0.1,1.3,0.7,2.2,1.9,2.6c1.1,0.4,2.9,0.7,5.4,0.9l-0.5,2.2c-1.1-0.1-2.4-0.1-3.8-0.2
			c-1.5,0-3-0.1-4.7-0.1c-1.7,0-3.3-0.1-5-0.1c-2.8,0-5.5,0-8.1,0.1c-2.5,0-4.6,0.1-6.2,0.3l0.5-2.2c2.5-0.1,4.4-0.4,5.8-0.9
			c1.4-0.4,2.5-1.3,3.3-2.6c0.8-1.3,1.5-3.3,2.2-5.9l7.5-29.9l3.8,6.9l3.6-2.1l3.7-8.7L1701.8,353.4z"/>
		<path class="st0" d="M1737.9,360.9c0-2.2,0.8-4.1,2.5-5.8c1.7-1.7,3.5-2.6,5.6-2.6c1.7,0,3,0.5,4,1.6c1,1.1,1.5,2.4,1.5,4
			c0,1.5-0.4,2.8-1.1,4.1c-0.8,1.3-1.8,2.3-3,3.1c-1.2,0.8-2.6,1.1-4,1.1c-1.6,0-2.9-0.5-3.9-1.6
			C1738.4,363.8,1737.9,362.5,1737.9,360.9z M1747.4,343.2c2-7.7,3.7-15.3,5-22.8c1.3-7.5,2.5-14.4,3.5-20.8
			c1-6.4,2.1-11.6,3.2-15.8c0.2-0.7,0.5-1.3,0.8-1.8c0.3-0.5,0.7-1,1.1-1.4c0.4-0.4,0.9-0.6,1.4-0.8c0.5-0.2,1.1-0.3,1.6-0.3
			c2.3,0,3.7,0.7,4.4,2.1c0.7,1.4,0.7,2.9,0.2,4.7c-0.8,2.9-2,6.4-3.5,10.5c-1.5,4.1-3.2,8.7-5.1,13.7c-1.9,5-3.7,10.3-5.6,15.9
			c-1.9,5.6-3.5,11.2-5.1,17.1L1747.4,343.2z"/>
	</g>
	<circle class="st0" cx="944" cy="625.7" r="11.7"/>
	<g>
		<circle class="st0" cx="1770.1" cy="621.6" r="11.7"/>
		<g>
			<path class="st0" d="M1789.5,613.2h3.2l3,11.4h0.1l3-11.4h3.2l3,11.3h0.2l3-11.3h3.1l-4.5,15.5h-3.1l-3.1-11.2h-0.2l-3.1,11.2
				h-3.1L1789.5,613.2z"/>
			<path class="st0" d="M1814.5,610.6c-0.3-0.2-0.5-0.4-0.7-0.7s-0.3-0.6-0.3-0.9c0-0.3,0.1-0.6,0.3-0.9s0.4-0.5,0.7-0.7
				c0.3-0.2,0.6-0.2,1-0.2c0.4,0,0.7,0.1,1,0.2c0.3,0.2,0.5,0.4,0.7,0.7s0.2,0.6,0.2,0.9c0,0.3-0.1,0.6-0.2,0.9s-0.4,0.5-0.7,0.7
				c-0.3,0.2-0.6,0.2-1,0.2C1815.1,610.8,1814.8,610.7,1814.5,610.6z M1813.9,613.2h3v15.5h-3V613.2z"/>
			<path class="st0" d="M1823.7,628.7h-3v-15.5h2.9v2.5h0.2c0.4-0.9,1-1.5,1.7-2c0.8-0.5,1.7-0.7,2.9-0.7c1.1,0,2,0.2,2.8,0.7
				c0.8,0.4,1.4,1.1,1.8,2c0.4,0.9,0.7,1.9,0.7,3.2v9.9h-3v-9.5c0-0.7-0.1-1.4-0.4-1.9s-0.6-0.9-1.1-1.2s-1.1-0.4-1.8-0.4
				c-0.7,0-1.3,0.2-1.9,0.5c-0.5,0.3-1,0.7-1.3,1.3c-0.3,0.6-0.5,1.3-0.5,2.1V628.7z"/>
			<path class="st0" d="M1840.2,628.1c-1.1-0.7-2-1.6-2.6-2.8c-0.6-1.2-0.9-2.6-0.9-4.2c0-1.6,0.3-3,0.9-4.2
				c0.6-1.2,1.4-2.2,2.5-2.8c1.1-0.7,2.3-1,3.8-1c1.3,0,2.4,0.3,3.4,0.8c1,0.5,1.9,1.4,2.5,2.6c0.6,1.2,0.9,2.6,0.9,4.4v1.1h-12.4
				v-2.3h9.4c0-0.8-0.2-1.5-0.5-2.1c-0.3-0.6-0.8-1.1-1.4-1.5c-0.6-0.4-1.3-0.5-2-0.5c-0.8,0-1.6,0.2-2.2,0.6
				c-0.6,0.4-1.1,0.9-1.5,1.6c-0.4,0.7-0.5,1.4-0.5,2.2v1.8c0,1,0.2,1.9,0.6,2.6s0.9,1.3,1.5,1.7c0.7,0.4,1.4,0.6,2.3,0.6
				c0.6,0,1.1-0.1,1.5-0.2c0.4-0.2,0.8-0.4,1.1-0.6c0.3-0.2,0.6-0.5,0.7-0.9h3.1c-0.2,0.8-0.6,1.6-1.2,2.2c-0.6,0.6-1.3,1.1-2.2,1.5
				s-1.9,0.5-3,0.5C1842.6,629.1,1841.3,628.7,1840.2,628.1z"/>
		</g>
	</g>
	<g>
		<path class="st0" d="M272.3,331.7c0-6.8-3.8-12-9-12c-5.5,0-11,6.8-11,20.9c0,10.4,3.7,19.8,8.7,24.7v0.3h-9c-4.7-4-9-13.2-9-25.3
			c0-19.6,9.9-28.7,20-28.7c6.4,0,11.6,3.6,13.7,9.4h0.4c2.5-5.8,7.5-9.4,14-9.4c9.2,0,19.3,7.7,19.3,27.8c0,11.9-4.6,21.6-9.3,26.2
			h-8.8v-0.3c4.9-5.2,8.7-14.4,8.7-25.6c0-14.7-6.2-20.1-11.2-20.1c-4.9,0-8.7,5.3-8.7,11.9l0.2,20.2h-9L272.3,331.7z"/>
	</g>
</g>
</svg>
